# xmcd CD database file
#
# Track frame offsets:
#	183
#	20683
#	32903
#	43165
#	63178
#	78915
#	103188
#	117908
#	132883
#	148270
#	161445
#	171933
#
# Disc length: 2457 seconds
#
# Revision: 0
# Processed by: cddbd v1.4b42PL1 Copyright (c) Steve Scherf et al.
# Submitted via: CDex 1.40Beta6
#
DISCID=a509970c
DTITLE=Los Incas - Un Instant d'Eternité
DYEAR=1900
DGENRE=Native American
TTITLE0=Bolero Opus 7
TTITLE1=Khorti Poncho
TTITLE2=Milonga Yrunca
TTITLE3=Cancion de Cuna
TTITLE4=Huayno Y Tundiqui
TTITLE5=Un pedazo de infinito
TTITLE6=Sinergia II
TTITLE7=El Condor pasa
TTITLE8=Tusuy
TTITLE9=Ya Es Tiempo de milonga
TTITLE10=Fuego Lento
TTITLE11=Sikuris
EXTD=
EXTT0=
EXTT1=
EXTT2=
EXTT3=
EXTT4=
EXTT5=
EXTT6=
EXTT7=
EXTT8=
EXTT9=
EXTT10=
EXTT11=
PLAYORDER=
